<mxfile host="app.diagrams.net" modified="2023-05-25T11:54:48.977Z" agent="Mozilla/5.0 (Windows NT 10.0; Win64; x64) AppleWebKit/537.36 (KHTML, like Gecko) Chrome/113.0.0.0 Safari/537.36" etag="DItjfKo3Q5cRgLGu5NNh" version="21.3.4" type="device">
  <diagram name="Page-1" id="90a13364-a465-7bf4-72fc-28e22215d7a0">
    <mxGraphModel dx="2074" dy="2363" grid="1" gridSize="10" guides="1" tooltips="1" connect="1" arrows="1" fold="1" page="1" pageScale="1.5" pageWidth="1169" pageHeight="826" background="none" math="0" shadow="0">
      <root>
        <mxCell id="0" style=";html=1;" />
        <mxCell id="1" style=";html=1;" parent="0" />
        <mxCell id="Ui9a4pLDbNH3UUG4MJSC-5" value="Vertical Container" style="swimlane;whiteSpace=wrap;html=1;" parent="1" vertex="1">
          <mxGeometry x="470" y="-60" width="1180" height="730" as="geometry" />
        </mxCell>
        <mxCell id="Ui9a4pLDbNH3UUG4MJSC-21" value="Jumper" style="shape=parallelogram;perimeter=parallelogramPerimeter;whiteSpace=wrap;html=1;fixedSize=1;" parent="Ui9a4pLDbNH3UUG4MJSC-5" vertex="1">
          <mxGeometry x="110.12" y="490" width="120" height="60" as="geometry" />
        </mxCell>
        <mxCell id="Ui9a4pLDbNH3UUG4MJSC-27" value="FPGA" style="rounded=0;whiteSpace=wrap;html=1;" parent="Ui9a4pLDbNH3UUG4MJSC-5" vertex="1">
          <mxGeometry x="570" y="90" width="120" height="580" as="geometry" />
        </mxCell>
        <mxCell id="Ui9a4pLDbNH3UUG4MJSC-29" value="SYNC, 1 IO" style="text;html=1;strokeColor=none;fillColor=none;align=center;verticalAlign=middle;whiteSpace=wrap;rounded=0;" parent="Ui9a4pLDbNH3UUG4MJSC-5" vertex="1">
          <mxGeometry x="330" y="420" width="130" height="30" as="geometry" />
        </mxCell>
        <mxCell id="Ui9a4pLDbNH3UUG4MJSC-31" value="Master / slave&lt;br&gt;&amp;nbsp;Select&lt;br&gt;&amp;nbsp;Jumper" style="shape=parallelogram;perimeter=parallelogramPerimeter;whiteSpace=wrap;html=1;fixedSize=1;" parent="Ui9a4pLDbNH3UUG4MJSC-5" vertex="1">
          <mxGeometry x="850" y="110" width="120" height="60" as="geometry" />
        </mxCell>
        <mxCell id="Ui9a4pLDbNH3UUG4MJSC-32" value="" style="endArrow=classic;html=1;rounded=0;entryX=0;entryY=0.5;entryDx=0;entryDy=0;" parent="Ui9a4pLDbNH3UUG4MJSC-5" target="Ui9a4pLDbNH3UUG4MJSC-31" edge="1">
          <mxGeometry width="50" height="50" relative="1" as="geometry">
            <mxPoint x="690" y="140" as="sourcePoint" />
            <mxPoint x="740" y="110" as="targetPoint" />
          </mxGeometry>
        </mxCell>
        <mxCell id="Ui9a4pLDbNH3UUG4MJSC-33" value="Bluetooth Classic" style="rounded=0;whiteSpace=wrap;html=1;" parent="Ui9a4pLDbNH3UUG4MJSC-5" vertex="1">
          <mxGeometry x="110.12" y="320" width="120" height="60" as="geometry" />
        </mxCell>
        <mxCell id="Ui9a4pLDbNH3UUG4MJSC-34" value="" style="endArrow=classic;startArrow=classic;html=1;rounded=0;exitX=1;exitY=0.5;exitDx=0;exitDy=0;entryX=-0.001;entryY=0.155;entryDx=0;entryDy=0;entryPerimeter=0;" parent="Ui9a4pLDbNH3UUG4MJSC-5" source="Ui9a4pLDbNH3UUG4MJSC-33" edge="1">
          <mxGeometry width="50" height="50" relative="1" as="geometry">
            <mxPoint x="300.12" y="380" as="sourcePoint" />
            <mxPoint x="570.0000000000001" y="349.9000000000001" as="targetPoint" />
          </mxGeometry>
        </mxCell>
        <mxCell id="Ui9a4pLDbNH3UUG4MJSC-35" value="6 IOs, UART, SPI" style="text;html=1;strokeColor=none;fillColor=none;align=center;verticalAlign=middle;whiteSpace=wrap;rounded=0;" parent="Ui9a4pLDbNH3UUG4MJSC-5" vertex="1">
          <mxGeometry x="270.12" y="320" width="230" height="30" as="geometry" />
        </mxCell>
        <mxCell id="Ui9a4pLDbNH3UUG4MJSC-42" style="edgeStyle=orthogonalEdgeStyle;rounded=0;orthogonalLoop=1;jettySize=auto;html=1;entryX=-0.001;entryY=0.206;entryDx=0;entryDy=0;entryPerimeter=0;" parent="Ui9a4pLDbNH3UUG4MJSC-5" source="Ui9a4pLDbNH3UUG4MJSC-36" target="Ui9a4pLDbNH3UUG4MJSC-27" edge="1">
          <mxGeometry relative="1" as="geometry" />
        </mxCell>
        <mxCell id="Ui9a4pLDbNH3UUG4MJSC-45" style="edgeStyle=orthogonalEdgeStyle;rounded=0;orthogonalLoop=1;jettySize=auto;html=1;entryX=0.008;entryY=0.067;entryDx=0;entryDy=0;entryPerimeter=0;" parent="Ui9a4pLDbNH3UUG4MJSC-5" source="Ui9a4pLDbNH3UUG4MJSC-36" target="Ui9a4pLDbNH3UUG4MJSC-27" edge="1">
          <mxGeometry relative="1" as="geometry">
            <Array as="points">
              <mxPoint x="170" y="120" />
              <mxPoint x="571" y="120" />
            </Array>
            <mxPoint x="300" y="120" as="targetPoint" />
          </mxGeometry>
        </mxCell>
        <mxCell id="Ui9a4pLDbNH3UUG4MJSC-36" value="USB Power Controller" style="rounded=0;whiteSpace=wrap;html=1;" parent="Ui9a4pLDbNH3UUG4MJSC-5" vertex="1">
          <mxGeometry x="110" y="180" width="120" height="60" as="geometry" />
        </mxCell>
        <mxCell id="Ui9a4pLDbNH3UUG4MJSC-38" value="" style="edgeStyle=orthogonalEdgeStyle;rounded=0;orthogonalLoop=1;jettySize=auto;html=1;" parent="Ui9a4pLDbNH3UUG4MJSC-5" source="Ui9a4pLDbNH3UUG4MJSC-4" edge="1">
          <mxGeometry relative="1" as="geometry">
            <mxPoint x="930" y="500" as="targetPoint" />
          </mxGeometry>
        </mxCell>
        <mxCell id="Ui9a4pLDbNH3UUG4MJSC-4" value="Speaker Signals&lt;br&gt;VS&lt;br&gt;GND" style="shape=process;whiteSpace=wrap;html=1;backgroundOutline=1;" parent="Ui9a4pLDbNH3UUG4MJSC-5" vertex="1">
          <mxGeometry x="750" y="470" width="120" height="60" as="geometry" />
        </mxCell>
        <mxCell id="Ui9a4pLDbNH3UUG4MJSC-1" value="8x8 Array Board" style="swimlane;whiteSpace=wrap;html=1;" parent="Ui9a4pLDbNH3UUG4MJSC-5" vertex="1">
          <mxGeometry x="930" y="340" width="200" height="280" as="geometry" />
        </mxCell>
        <mxCell id="Ui9a4pLDbNH3UUG4MJSC-2" value="Transducers" style="ellipse;whiteSpace=wrap;html=1;" parent="Ui9a4pLDbNH3UUG4MJSC-1" vertex="1">
          <mxGeometry x="40" y="50" width="120" height="80" as="geometry" />
        </mxCell>
        <mxCell id="Ui9a4pLDbNH3UUG4MJSC-3" value="Amplifiers" style="ellipse;whiteSpace=wrap;html=1;" parent="Ui9a4pLDbNH3UUG4MJSC-1" vertex="1">
          <mxGeometry x="40" y="170" width="120" height="80" as="geometry" />
        </mxCell>
        <mxCell id="Ui9a4pLDbNH3UUG4MJSC-37" value="" style="endArrow=classic;html=1;rounded=0;exitX=1;exitY=0.707;exitDx=0;exitDy=0;exitPerimeter=0;entryX=0;entryY=0.5;entryDx=0;entryDy=0;" parent="Ui9a4pLDbNH3UUG4MJSC-5" source="Ui9a4pLDbNH3UUG4MJSC-27" target="Ui9a4pLDbNH3UUG4MJSC-4" edge="1">
          <mxGeometry width="50" height="50" relative="1" as="geometry">
            <mxPoint x="650" y="600" as="sourcePoint" />
            <mxPoint x="700" y="550" as="targetPoint" />
          </mxGeometry>
        </mxCell>
        <mxCell id="Ui9a4pLDbNH3UUG4MJSC-40" value="" style="endArrow=classic;startArrow=classic;html=1;rounded=0;exitX=0.5;exitY=0;exitDx=0;exitDy=0;entryX=0.5;entryY=1;entryDx=0;entryDy=0;" parent="Ui9a4pLDbNH3UUG4MJSC-5" source="Ui9a4pLDbNH3UUG4MJSC-33" target="Ui9a4pLDbNH3UUG4MJSC-36" edge="1">
          <mxGeometry width="50" height="50" relative="1" as="geometry">
            <mxPoint x="180" y="300" as="sourcePoint" />
            <mxPoint x="230" y="250" as="targetPoint" />
          </mxGeometry>
        </mxCell>
        <mxCell id="Ui9a4pLDbNH3UUG4MJSC-41" value="I2C, Power" style="text;html=1;strokeColor=none;fillColor=none;align=center;verticalAlign=middle;whiteSpace=wrap;rounded=0;" parent="Ui9a4pLDbNH3UUG4MJSC-5" vertex="1">
          <mxGeometry x="170" y="260" width="90" height="30" as="geometry" />
        </mxCell>
        <mxCell id="Ui9a4pLDbNH3UUG4MJSC-43" value="VS, VCC" style="text;html=1;strokeColor=none;fillColor=none;align=center;verticalAlign=middle;whiteSpace=wrap;rounded=0;" parent="Ui9a4pLDbNH3UUG4MJSC-5" vertex="1">
          <mxGeometry x="355" y="180" width="60" height="30" as="geometry" />
        </mxCell>
        <mxCell id="Ui9a4pLDbNH3UUG4MJSC-13" style="edgeStyle=orthogonalEdgeStyle;rounded=0;orthogonalLoop=1;jettySize=auto;html=1;entryX=0;entryY=0.5;entryDx=0;entryDy=0;" parent="1" source="Ui9a4pLDbNH3UUG4MJSC-11" target="Ui9a4pLDbNH3UUG4MJSC-36" edge="1">
          <mxGeometry relative="1" as="geometry">
            <mxPoint x="470" y="150" as="targetPoint" />
          </mxGeometry>
        </mxCell>
        <mxCell id="Ui9a4pLDbNH3UUG4MJSC-11" value="QC3 or PD3 20W+ USB C Battery" style="ellipse;whiteSpace=wrap;html=1;aspect=fixed;" parent="1" vertex="1">
          <mxGeometry x="240" y="110" width="80" height="80" as="geometry" />
        </mxCell>
        <mxCell id="Ui9a4pLDbNH3UUG4MJSC-14" style="edgeStyle=orthogonalEdgeStyle;rounded=0;orthogonalLoop=1;jettySize=auto;html=1;entryX=0;entryY=0.5;entryDx=0;entryDy=0;" parent="1" source="Ui9a4pLDbNH3UUG4MJSC-15" target="Ui9a4pLDbNH3UUG4MJSC-33" edge="1">
          <mxGeometry relative="1" as="geometry">
            <mxPoint x="470.12" y="290" as="targetPoint" />
          </mxGeometry>
        </mxCell>
        <mxCell id="Ui9a4pLDbNH3UUG4MJSC-15" value="Debug Micro USB from Computer" style="ellipse;whiteSpace=wrap;html=1;aspect=fixed;" parent="1" vertex="1">
          <mxGeometry x="240.12" y="250" width="80" height="80" as="geometry" />
        </mxCell>
        <mxCell id="Ui9a4pLDbNH3UUG4MJSC-19" value="Link B 3.5mm Stereo Jack Cable" style="ellipse;whiteSpace=wrap;html=1;aspect=fixed;" parent="1" vertex="1">
          <mxGeometry x="240" y="490" width="80" height="80" as="geometry" />
        </mxCell>
        <mxCell id="Ui9a4pLDbNH3UUG4MJSC-25" style="edgeStyle=orthogonalEdgeStyle;rounded=0;orthogonalLoop=1;jettySize=auto;html=1;entryX=0.5;entryY=0;entryDx=0;entryDy=0;" parent="1" source="Ui9a4pLDbNH3UUG4MJSC-20" target="Ui9a4pLDbNH3UUG4MJSC-21" edge="1">
          <mxGeometry relative="1" as="geometry" />
        </mxCell>
        <mxCell id="Ui9a4pLDbNH3UUG4MJSC-20" value="Link A 3.5mm Stereo Jack Cable" style="ellipse;whiteSpace=wrap;html=1;aspect=fixed;" parent="1" vertex="1">
          <mxGeometry x="240" y="370" width="80" height="80" as="geometry" />
        </mxCell>
        <mxCell id="Ui9a4pLDbNH3UUG4MJSC-24" style="edgeStyle=orthogonalEdgeStyle;rounded=0;orthogonalLoop=1;jettySize=auto;html=1;entryX=1;entryY=0.5;entryDx=0;entryDy=0;" parent="1" source="Ui9a4pLDbNH3UUG4MJSC-21" target="Ui9a4pLDbNH3UUG4MJSC-19" edge="1">
          <mxGeometry relative="1" as="geometry">
            <mxPoint x="470" y="530" as="targetPoint" />
            <Array as="points">
              <mxPoint x="640" y="530" />
            </Array>
          </mxGeometry>
        </mxCell>
        <mxCell id="Ui9a4pLDbNH3UUG4MJSC-28" value="" style="endArrow=classic;startArrow=classic;html=1;rounded=0;exitX=0.963;exitY=0.275;exitDx=0;exitDy=0;exitPerimeter=0;entryX=-0.042;entryY=0.331;entryDx=0;entryDy=0;entryPerimeter=0;" parent="1" source="Ui9a4pLDbNH3UUG4MJSC-20" edge="1">
          <mxGeometry width="50" height="50" relative="1" as="geometry">
            <mxPoint x="380" y="370" as="sourcePoint" />
            <mxPoint x="1034.96" y="391.98" as="targetPoint" />
          </mxGeometry>
        </mxCell>
      </root>
    </mxGraphModel>
  </diagram>
</mxfile>
